<?xml version="1.0" encoding="UTF-8" standalone="no"?>
<!-- Created with Inkscape (http://www.inkscape.org/) -->

<svg
   width="304.37241mm"
   height="64.548576mm"
   viewBox="0 0 304.37241 64.548576"
   version="1.1"
   id="svg1"
   inkscape:version="1.4 (86a8ad7, 2024-10-11)"
   sodipodi:docname="logo.svg"
   xmlns:inkscape="http://www.inkscape.org/namespaces/inkscape"
   xmlns:sodipodi="http://sodipodi.sourceforge.net/DTD/sodipodi-0.dtd"
   xmlns="http://www.w3.org/2000/svg"
   xmlns:svg="http://www.w3.org/2000/svg">
  <sodipodi:namedview
     id="namedview1"
     pagecolor="#ffffff"
     bordercolor="#000000"
     borderopacity="0.25"
     inkscape:showpageshadow="2"
     inkscape:pageopacity="0.0"
     inkscape:pagecheckerboard="0"
     inkscape:deskcolor="#d1d1d1"
     inkscape:document-units="mm"
     inkscape:zoom="0.82582071"
     inkscape:cx="258.53069"
     inkscape:cy="452.27735"
     inkscape:window-width="1920"
     inkscape:window-height="1129"
     inkscape:window-x="-8"
     inkscape:window-y="-4"
     inkscape:window-maximized="1"
     inkscape:current-layer="layer1" />
  <defs
     id="defs1" />
  <g
     inkscape:label="Layer 1"
     inkscape:groupmode="layer"
     id="layer1"
     transform="translate(-36.5125,-28.839574)">
    <g
       id="g2"
       transform="translate(17.713483,-474.26248)">
      <path
         id="path5-2-3-0-1-1-8-5-8-2-9-6-6-3"
         d="m 282.70472,530.66972 c -0.13343,-0.4417 0.53095,-2.23042 1.05683,-2.83138 0.41178,-0.47363 1.05195,-0.95585 1.71798,-1.29651 0.34313,-0.17621 0.65446,-0.36906 0.68345,-0.43314 0.0332,-0.064 0.33539,-0.71281 0.66695,-1.43777 0.58434,-1.27768 0.61726,-1.33364 0.93469,-1.66353 0.65105,-0.66759 1.48993,-1.04994 2.34731,-1.07304 0.34451,-0.007 0.68409,0.0468 1.32213,0.22207 1.76664,0.483 3.47099,0.58995 4.91715,0.30166 0.47805,-0.0975 0.62032,-0.23245 2.12892,-1.97587 0.66873,-0.77623 1.32497,-1.52039 1.45915,-1.65142 0.17488,-0.17478 0.22825,-0.25866 0.19715,-0.31965 -0.093,-0.19504 -0.8878,-0.86073 -1.59725,-1.33954 -0.66185,-0.44987 -0.94396,-0.59538 -2.07743,-1.10494 -2.06409,-0.93129 -2.59215,-0.96768 -4.4287,-0.29415 -0.35038,0.12768 -0.83709,0.26541 -1.06979,0.29409 -0.43748,0.0619 -0.80115,0.27403 -0.92562,0.55446 -0.0953,0.21231 -0.25684,0.29452 -0.5005,0.25446 -0.31556,-0.0533 -0.38974,-0.17541 -0.39051,-0.64735 -0.001,-0.41949 -0.0446,-0.48874 -0.48397,-0.8182 -0.46327,-0.34191 -0.85515,-0.90055 -1.05413,-1.50058 -0.28705,-0.86357 -0.24759,-1.60512 0.12977,-2.44231 0.39381,-0.86517 1.00337,-1.44064 1.88549,-1.76989 1.3816,-0.51919 2.87274,-0.0888 3.7356,1.09016 0.1294,0.17544 0.49568,0.83855 0.80629,1.47256 0.6991,1.41042 0.99629,1.87482 1.40032,2.16339 0.59016,0.42455 2.25294,1.15202 4.27634,1.86487 0.91213,0.3206 1.1476,0.37263 2.5184,0.55512 l 0.93914,0.12744 1.15944,-0.39354 c 0.63612,-0.22012 2.24233,-0.76004 3.57078,-1.20746 1.32839,-0.44338 3.84856,-1.29998 5.59983,-1.89817 5.33834,-1.82154 6.71815,-2.2238 7.75186,-2.25626 0.34056,-0.0109 0.67156,0.079 0.62611,0.171 -0.012,0.0199 -0.63346,0.30484 -1.37917,0.62007 -6.62695,2.80199 -12.31109,5.23531 -12.44878,5.33403 -0.10125,0.071 0.3228,0.10179 8.2879,0.64002 4.79666,0.32401 6.66037,0.48584 6.70282,0.58734 0.008,0.0243 -0.0493,0.084 -0.12618,0.13114 -0.78003,0.46393 -6.24636,0.71445 -13.23691,0.60669 -1.77367,-0.0273 -5.33602,-0.14674 -5.65965,-0.19609 -0.20783,-0.0275 -2.28061,0.90465 -2.95195,1.32992 -0.70769,0.44488 -1.34041,0.96352 -2.49826,2.03472 -1.20659,1.11482 -1.17425,1.09515 -1.75831,1.05389 -1.44399,-0.11099 -1.97159,0.0826 -2.67809,0.97113 -0.3267,0.41041 -0.91085,1.41383 -1.23835,2.13482 -0.3772,0.82911 -0.93816,1.36903 -1.79656,1.71881 -0.98345,0.40836 -2.01117,0.31186 -2.89538,-0.26243 -1.22911,-0.80147 -2.19113,-1.00182 -3.07782,-0.63635 -0.76581,0.31895 -1.14155,0.79315 -1.82146,2.29523 -0.52245,1.15764 -0.61221,1.26517 -0.71503,0.92073 l -0.008,-1.2e-4 z m 7.01882,-2.76367 c 1.00003,0.0718 1.99787,-0.48952 2.50856,-1.40533 0.51891,-0.92778 0.44089,-2.10274 -0.19903,-2.93544 -0.22769,-0.29797 -0.29505,-0.34337 -0.86748,-0.61841 -0.56457,-0.26684 -0.64828,-0.29233 -1.01281,-0.28586 -0.60894,0.015 -1.20504,0.23554 -1.67971,0.63157 -0.40159,0.33263 -0.4139,0.35261 -0.70825,1.00151 -0.28608,0.63288 -0.30295,0.68909 -0.29365,1.12485 0.0312,1.35979 0.96839,2.38664 2.25249,2.47905 v 0 z m 0.47955,-12.66594 c 0.76723,0.10863 1.43917,-0.0947 2.06807,-0.62559 0.32053,-0.26934 0.36561,-0.33721 0.61857,-0.898 0.24472,-0.54882 0.27417,-0.64115 0.26382,-1.00836 -0.0112,-0.55277 -0.21137,-1.09634 -0.56506,-1.53337 -0.25933,-0.32264 -0.35037,-0.39262 -0.77183,-0.5887 -0.57644,-0.27509 -0.98009,-0.32971 -1.56655,-0.21372 -1.47818,0.2878 -2.41079,1.81423 -1.97198,3.22467 0.28618,0.92001 0.9857,1.52372 1.91684,1.65101 v 0 z m 13.24383,3.3624 c 0.24958,-0.0849 0.38063,-0.27244 0.34815,-0.50286 -0.0542,-0.38402 -0.41187,-0.55895 -0.73146,-0.3501 -0.44898,0.28754 -0.1199,1.02267 0.38331,0.85296 z"
         style="stroke-width:0.401862" />
      <path
         id="path5-5-4-2-0-2-1-8-7-6-3-6-2"
         d="m 64.831821,529.28284 c -0.129246,0.47669 -1.723642,1.69225 -2.531103,1.92701 -0.631549,0.18531 -1.476143,0.23881 -2.265522,0.15089 -0.404719,-0.046 -0.789185,-0.0557 -0.857041,-0.0191 -0.06786,0.0367 -0.698089,0.4398 -1.400062,0.89979 -1.23646,0.80604 -1.300345,0.83868 -1.768219,0.94234 -0.959738,0.21552 -1.925678,0.0641 -2.709495,-0.42726 -0.317548,-0.19973 -0.587334,-0.44817 -1.059082,-0.98171 -1.314344,-1.48027 -2.782652,-2.59261 -4.239779,-3.18474 -0.481698,-0.1947 -0.685743,-0.16524 -3.008121,0.51831 -1.035292,0.30066 -2.034681,0.58096 -2.230652,0.62248 -0.255937,0.054 -0.347761,0.0989 -0.359341,0.17156 -0.0266,0.23408 0.312196,1.30082 0.685744,2.15357 0.345196,0.79648 0.511152,1.09392 1.242764,2.2228 1.329885,2.06095 1.784451,2.40506 3.805549,2.88891 0.388985,0.0944 0.898546,0.26076 1.127436,0.36827 0.42971,0.20712 0.870292,0.22462 1.137518,0.0495 0.207417,-0.13433 0.395754,-0.11123 0.593065,0.069 0.249692,0.23644 0.250643,0.39373 -0.01114,0.81475 -0.233928,0.38457 -0.237423,0.46928 -0.02182,1.02455 0.219771,0.58347 0.264275,1.32126 0.108035,1.97557 -0.226497,0.94915 -0.675089,1.59313 -1.484776,2.12233 -0.833582,0.54952 -1.705613,0.69998 -2.680017,0.47599 -1.531753,-0.34969 -2.624669,-1.62964 -2.742249,-3.19782 -0.01751,-0.23785 0.02569,-1.04877 0.101235,-1.80342 0.162008,-1.68278 0.150398,-2.27962 -0.04481,-2.77855 -0.288727,-0.73228 -1.375813,-2.37525 -2.788459,-4.21388 -0.637705,-0.831 -0.823046,-1.01943 -1.94614,-1.99673 l -0.772894,-0.67289 -1.259362,-0.33117 c -0.693842,-0.18133 -2.438531,-0.64668 -3.878398,-1.02919 -1.439856,-0.38251 -4.175182,-1.10807 -6.080258,-1.60875 -5.803471,-1.52573 -7.267793,-1.98069 -8.212302,-2.55979 -0.309473,-0.18767 -0.555427,-0.46851 -0.463652,-0.52149 0.01988,-0.0163 0.733408,0.10044 1.587284,0.26063 7.508564,1.40248 13.966649,2.58547 14.142818,2.58037 0.128183,-7.8e-4 -0.233981,-0.28493 -7.076814,-5.49469 -4.119371,-3.13705 -5.704652,-4.38984 -5.677301,-4.50292 0.0076,-0.0283 0.09189,-0.049 0.187922,-0.0455 0.965329,0.0466 6.000926,3.05711 12.213286,7.30675 1.57622,1.07942 4.696973,3.29894 4.962666,3.53124 0.169072,0.14821 2.549997,0.53712 3.394994,0.55218 0.881057,0.0189 1.737439,-0.071 3.377536,-0.3471 1.708065,-0.29265 1.668023,-0.29241 2.166892,0.0918 1.231066,0.95244 1.820588,1.09809 2.943489,0.71623 0.527509,-0.17661 1.605278,-0.73567 2.303291,-1.19159 0.801688,-0.52512 1.609661,-0.67519 2.571826,-0.48742 1.114526,0.2191 1.975638,0.91163 2.44642,1.95336 0.653479,1.45201 1.40282,2.20167 2.405063,2.39324 0.861927,0.16821 1.461325,-0.037 2.917197,-0.98156 1.116784,-0.73272 1.252681,-0.77387 1.158801,-0.40629 l -0.0078,5e-5 c 0,0 2.8e-5,0.005 2.8e-5,0.005 z m -7.834528,-1.67073 c -0.856887,-0.65626 -2.062736,-0.74576 -3.032629,-0.22365 -0.989829,0.53432 -1.571806,1.63485 -1.464874,2.76347 0.03851,0.40711 0.071,0.48354 0.430922,1.0702 0.355886,0.57862 0.420383,0.65083 0.749999,0.85856 0.554709,0.35157 1.21232,0.50085 1.860589,0.42836 0.548215,-0.0597 0.568187,-0.0679 1.19838,-0.48315 0.610236,-0.39894 0.65404,-0.43954 0.891866,-0.84026 0.733314,-1.23856 0.468051,-2.72517 -0.638271,-3.57351 v 0 z m -7.512901,11.12439 c -0.632027,-0.55274 -1.342079,-0.76624 -2.20639,-0.66422 -0.436149,0.0551 -0.516026,0.0879 -1.054495,0.43793 -0.526474,0.34599 -0.60613,0.41907 -0.804328,0.75099 -0.305255,0.51001 -0.425719,1.11571 -0.353997,1.72024 0.05469,0.44331 0.09532,0.556 0.36237,0.98996 0.359966,0.59068 0.698047,0.875 1.280144,1.12153 1.48533,0.61615 3.174221,-0.20068 3.569394,-1.73162 0.258244,-0.99774 -0.0318,-1.95587 -0.796716,-2.62478 v 0 z m -9.996513,-10.88544 c -0.268713,-0.0709 -0.4924,0.0231 -0.591153,0.24556 -0.165888,0.38012 0.06053,0.74577 0.461024,0.75141 0.564667,0.009 0.679599,-0.85106 0.130185,-0.99697 z"
         style="stroke-width:0.401862" />
      <text
         class="cls-1"
         transform="matrix(0.98841583,-0.00589478,0.00723439,1.0116768,0,0)"
         id="text1-8-7-3-3-1-2"
         style="font-size:15.4861px;font-family:Karu-Regular, Karu;letter-spacing:0.31em;isolation:isolate;fill:#000000;fill-opacity:1;stroke:none;stroke-width:0.488593px;stroke-linecap:round;stroke-linejoin:round;stroke-miterlimit:10"
         x="124.813"
         y="561.82794"><tspan
           x="124.813"
           y="561.82794"
           id="tspan1-57-8-8-2-2-4"
           style="fill:#000000;fill-opacity:1;stroke:none;stroke-width:0.488593px">ALNWICK</tspan></text>
      <path
         style="fill:#000000;stroke-width:1.11602"
         d="m 219.62582,545.08327 c -0.59426,-0.35742 -0.86998,-0.94943 -1.01515,-2.17958 -0.21338,-1.80821 -0.8248,-3.01928 -2.23025,-4.4176 -1.01668,-1.01152 -2.20301,-1.67752 -6.55404,-3.67938 -3.82144,-1.75819 -4.73532,-2.33036 -4.73917,-2.96712 -0.0104,-1.72549 3.65159,-3.16274 10.48565,-4.11536 3.20827,-0.4472 3.30678,-0.48742 3.47946,-1.42051 0.43986,-2.37684 0.9844,-15.82256 0.7946,-19.61987 l -0.0903,-1.80731 0.47357,-0.45208 c 0.35405,-0.33798 0.59466,-0.45281 0.95337,-0.45498 0.60153,-0.004 1.24517,0.38163 1.58295,0.94751 0.59551,0.99766 0.60628,7.59842 0.0278,17.06227 -0.15056,2.46331 -0.23384,4.51817 -0.18506,4.56636 0.2173,0.21469 2.61078,0.29304 8.13798,0.26637 l 5.94931,-0.0287 0.0721,-0.77525 c 0.13372,-1.43901 0.20508,-2.91461 0.37645,-7.78412 0.24071,-6.84017 0.46588,-9.36694 0.91905,-10.31397 0.22399,-0.46808 0.23634,-0.47347 1.18881,-0.51812 0.89955,-0.0422 0.9807,-0.0222 1.24145,0.30516 0.15344,0.19266 0.3173,0.6035 0.36412,0.91299 0.0468,0.30948 -0.0512,3.64213 -0.21789,7.40589 -0.16667,3.76377 -0.29739,7.77558 -0.2905,8.91515 l 0.0125,2.07194 0.8541,0.14342 c 0.46975,0.0789 1.10877,0.14188 1.42005,0.14 0.71183,-0.004 1.43435,0.28632 1.63625,0.65816 0.0853,0.15712 0.13781,0.50921 0.11665,0.78242 -0.0565,0.72938 -0.37188,0.83748 -2.48758,0.85264 -0.97757,0.007 -1.79957,0.0583 -1.82664,0.11409 -0.0883,0.18191 0.20303,8.40839 0.36146,10.20517 0.0849,0.96295 0.27615,2.20487 0.42498,2.75982 0.35184,1.31186 0.34554,1.5602 -0.0498,1.96031 -0.39226,0.39703 -1.20636,0.45454 -1.843,0.13018 -1.17148,-0.59684 -1.80758,-3.85961 -2.08043,-10.67109 -0.09,-2.24922 -0.21827,-4.23015 -0.28483,-4.40207 -0.0925,-0.23888 -0.25778,-0.33036 -0.70103,-0.38796 -0.86242,-0.11207 -7.51866,-0.29651 -10.16213,-0.28158 -2.31731,0.0131 -3.06356,0.13109 -3.20514,0.50684 -0.27698,0.73503 -0.52102,3.55545 -0.82787,9.56764 -0.13276,2.6014 -0.27878,4.92287 -0.3245,5.1588 -0.0891,0.45976 -0.72856,1.10168 -1.09893,1.1031 -0.12401,4.7e-4 -0.42031,-0.11633 -0.65844,-0.25956 z m -1.14883,-7.90208 c 0.13851,-0.16892 0.20826,-1.12912 0.28405,-3.91025 0.0553,-2.02749 0.0641,-3.7223 0.0196,-3.76625 -0.23225,-0.22946 -6.35888,0.69067 -8.56506,1.28635 -1.59099,0.42957 -1.96438,0.61027 -1.96232,0.94968 0.002,0.29408 0.21054,0.40955 3.38005,1.86968 2.30164,1.06031 4.60977,2.37238 5.61048,3.1893 0.81809,0.66785 0.96193,0.71235 1.23321,0.38149 z M 77.250047,544.1894 c -0.461416,-0.35846 -0.743076,-1.10504 -0.917693,-2.43258 -0.206014,-1.56623 -0.86602,-2.83884 -2.114471,-4.07705 -1.134199,-1.1249 -1.955104,-1.58914 -6.495765,-3.67349 -4.46936,-2.05162 -4.797297,-2.25847 -4.801954,-3.02879 -0.0037,-0.61939 0.700085,-1.37396 1.856932,-1.99083 1.492774,-0.79598 3.760341,-1.31007 10.800598,-2.44865 0.565099,-0.0914 1.102671,-0.21328 1.194619,-0.27088 0.307086,-0.19237 0.828651,-10.38203 0.926978,-18.11008 l 0.05637,-4.42845 0.414912,-0.25978 c 0.228202,-0.14287 0.560252,-0.29858 0.737895,-0.34601 0.457194,-0.12208 1.194656,0.30746 1.621249,0.94431 l 0.354923,0.52985 0.02352,5.73608 c 0.01764,4.39382 -0.03866,6.72972 -0.242739,9.98233 -0.146511,2.33544 -0.298349,4.50034 -0.337419,4.81089 -0.06176,0.49123 -0.03061,0.58609 0.240129,0.72954 0.230956,0.12239 2.068675,0.17016 7.128616,0.1853 l 6.817428,0.0204 0.08144,-1.03861 c 0.04476,-0.57124 0.134081,-2.35344 0.198358,-3.96044 0.06428,-1.60701 0.173056,-4.31684 0.241707,-6.02185 0.134072,-3.32957 0.417369,-6.69227 0.633834,-7.52328 0.194878,-0.74817 0.542263,-1.04049 1.241523,-1.04472 0.764858,-0.005 1.405635,0.22137 1.589913,0.56074 0.207212,0.38163 0.180603,2.78458 -0.0998,9.00919 -0.132196,2.93467 -0.248247,6.32098 -0.257875,7.52515 l -0.01757,2.18939 0.380034,0.32334 c 0.300387,0.25557 0.53239,0.32241 1.106994,0.31894 1.755927,-0.0106 2.629517,0.45813 2.635297,1.41401 0.004,0.73875 -0.3543,0.8759 -2.553704,0.97629 l -1.894462,0.0865 0.0982,3.24695 c 0.152788,5.04908 0.359159,7.96814 0.661848,9.36146 0.503553,2.3179 0.405243,2.57105 -1.00177,2.57956 -0.679474,0.004 -0.806305,-0.0409 -1.155199,-0.4099 -0.964799,-1.02037 -1.530071,-4.70283 -1.790954,-11.66709 -0.09423,-2.51568 -0.157628,-3.17295 -0.321593,-3.33495 -0.159385,-0.15746 -0.824294,-0.22713 -3.028061,-0.31728 -4.512769,-0.18459 -10.181715,-0.16769 -10.526617,0.0314 -0.64912,0.37467 -0.882742,2.32166 -1.266126,10.55193 -0.101874,2.18696 -0.243165,4.20076 -0.313981,4.47514 -0.24283,0.94088 -1.203064,1.342 -1.905773,0.79609 z m -0.962053,-7.87388 c 0.178422,-0.21765 0.374651,-3.44301 0.367365,-6.03804 l -0.004,-1.58329 -0.713009,0.004 c -1.518813,0.009 -6.288044,0.77584 -8.189825,1.31651 -1.433194,0.40746 -1.731063,0.56462 -1.728961,0.91219 0.0013,0.21828 0.37261,0.44472 1.859678,1.13417 4.052995,1.87909 5.942666,2.90529 7.076693,3.84303 0.774977,0.64085 1.069635,0.73176 1.332499,0.41111 z m 109.188526,5.92567 c -1.88989,-1.05968 -2.30593,-2.15748 -3.13919,-8.28342 -0.22862,-1.6807 -0.48084,-3.17586 -0.5605,-3.32256 -0.21907,-0.40346 -0.61701,-0.46089 -1.39385,-0.20115 -1.44031,0.48158 -2.45739,1.10108 -2.9709,1.80956 -0.58032,0.80067 -1.93724,2.09743 -2.53453,2.42218 -0.30985,0.16847 -0.74299,0.23299 -1.57296,0.23428 -1.39983,0.002 -2.43053,-0.34986 -3.20873,-1.09599 -0.62868,-0.60277 -0.8804,-1.42257 -1.14043,-3.7141 -0.2367,-2.086 -0.1359,-3.5187 0.31314,-4.45074 0.47458,-0.98508 1.55767,-2.1632 2.40222,-2.61304 0.58546,-0.31183 0.8488,-0.36527 1.82926,-0.3712 0.97659,-0.006 1.24531,0.0448 1.82388,0.3442 1.21172,0.62702 2.37108,2.10985 2.76334,3.53431 0.0811,0.29472 0.21418,0.9866 0.2956,1.5375 0.0814,0.55091 0.17142,1.02476 0.20001,1.053 0.0888,0.0878 2.11649,-0.91043 2.58615,-1.27318 0.81992,-0.63326 0.9376,-1.06408 1.49069,-5.45711 1.22315,-9.71522 2.928,-14.24505 5.90335,-15.68542 1.35274,-0.65486 2.97007,-0.47723 3.8028,0.41767 1.33832,1.43823 0.83332,5.11859 -1.32813,9.67931 -1.08706,2.2937 -2.08709,3.99286 -3.50966,5.96325 -0.61803,0.85604 -1.23382,1.80789 -1.36842,2.11524 -0.23942,0.54669 -0.49665,2.47394 -0.49388,3.70036 l 10e-4,0.61642 1.38008,-0.18374 c 2.20264,-0.29325 3.29011,-0.58117 5.01143,-1.32685 2.25665,-0.97758 3.23194,-0.95577 2.98188,0.0667 -0.18639,0.76215 -2.00713,1.68962 -4.7293,2.40909 -0.86754,0.22928 -2.11917,0.45864 -2.78141,0.50967 -0.82693,0.0637 -1.22571,0.15023 -1.27319,0.2762 -0.038,0.10087 0.25376,0.62022 0.64835,1.15409 1.41813,1.91864 1.8934,3.42897 1.95164,6.20193 0.0303,1.44316 -9.2e-4,1.71204 -0.26813,2.30895 -0.36228,0.80926 -0.84843,1.35385 -1.52283,1.70592 -0.64959,0.33912 -0.85843,0.32843 -1.58918,-0.0813 z m 1.24194,-5.33735 c -0.009,-0.7387 -0.0781,-1.12143 -0.25008,-1.38052 -0.485,-0.73054 -0.61469,-0.11854 -0.32864,1.5508 0.12706,0.74142 0.20663,0.93106 0.37599,0.8961 0.1747,-0.0361 0.21257,-0.23521 0.20273,-1.06638 z m -11.82148,-4.39057 0.86026,-0.71265 -1.26958,-0.0318 c -1.95549,-0.049 -2.17794,0.0935 -1.60154,1.02613 0.41912,0.67814 0.94038,0.60513 2.01086,-0.28166 z m 0.57163,-2.68793 c 0.91638,-0.20596 1.03702,-0.37698 1.03047,-1.46077 -0.009,-1.44854 -0.42722,-2.57126 -1.28414,-3.44536 -0.50558,-0.5157 -0.81248,-0.7238 -1.06517,-0.72227 -0.46046,0.003 -0.54691,0.16559 -0.56972,1.07306 -0.0128,0.50878 -0.15771,1.07517 -0.45105,1.76287 -0.49428,1.15878 -0.68121,2.54289 -0.3765,2.78771 0.39282,0.31561 1.32581,0.31725 2.71611,0.005 z m 12.59746,-11.34435 c 2.10406,-3.77925 3.371,-7.93037 2.92072,-9.56966 -0.24558,-0.89399 -1.23714,-0.008 -1.96186,1.75318 -1.16688,2.83555 -2.34488,7.17616 -2.33851,8.61684 0.006,1.36602 0.25343,1.22251 1.37965,-0.80036 z m 86.23531,22.80843 c -0.59881,-0.29065 -1.07437,-0.87747 -1.26434,-1.56011 -0.26353,-0.947 -0.10331,-4.31386 0.30403,-6.38936 0.3828,-1.95041 0.34525,-2.25684 -0.29584,-2.41362 -0.56731,-0.13875 -1.18818,0.27634 -2.09,1.39728 -2.8473,3.53916 -4.09545,4.44572 -6.09697,4.42843 -1.3594,-0.0118 -2.1317,-0.5381 -3.04533,-2.07549 l -0.54227,-0.91253 -1.48361,1.57252 c -1.55511,1.64832 -2.12776,2.05174 -3.1127,2.19281 -0.97098,0.13907 -1.45178,-0.019 -2.14727,-0.70618 -1.00448,-0.99241 -1.21083,-1.68118 -1.32007,-4.4063 l -0.0916,-2.28369 -1.09843,1.49152 c -1.23871,1.68198 -2.392,2.86011 -3.21901,3.28834 -1.38196,0.71559 -2.95581,0.15751 -3.71957,-1.31895 -0.34089,-0.65899 -0.38842,-0.89485 -0.3933,-1.95151 -0.0131,-2.91373 1.76467,-6.15121 4.01584,-7.3118 0.67451,-0.34773 0.86201,-0.38086 2.15371,-0.38049 0.77818,2e-4 1.67601,0.0724 1.99516,0.16033 0.76638,0.21123 1.02482,0.10732 1.51001,-0.60711 0.65397,-0.96292 1.68271,-1.0514 2.45357,-0.21103 0.33489,0.36509 0.37352,0.5063 0.37795,1.38145 0.003,0.53613 -0.10881,1.86346 -0.24781,2.94962 -0.13901,1.08616 -0.314,3.08826 -0.38891,4.44912 -0.17754,3.22602 -0.0498,3.60711 0.97333,2.90551 0.54883,-0.37633 1.62041,-1.77807 2.67286,-3.4964 0.89146,-1.4555 1.09814,-1.97646 1.45877,-3.67721 0.33883,-1.59798 0.86418,-2.77407 1.28787,-2.88314 0.47177,-0.12144 1.2632,0.033 1.65642,0.32327 0.33545,0.24761 0.34155,0.28318 0.341,1.98902 2e-4,0.9553 -0.0189,2.8973 -0.0413,4.31555 -0.0378,2.39126 -0.0219,2.59924 0.21768,2.86214 0.14214,0.15592 0.3946,0.28267 0.56104,0.28166 0.92767,-0.006 4.48405,-3.73287 4.47825,-4.69341 -0.001,-0.17256 -0.15623,-0.76441 -0.34484,-1.31522 -0.39515,-1.15394 -0.4351,-2.05467 -0.14691,-3.31144 0.24837,-1.08307 0.74425,-1.96349 1.29826,-2.30501 0.912,-0.56221 2.15831,-0.4755 2.79539,0.19447 0.42452,0.44644 0.53708,2.13284 0.23174,3.47212 -0.367,1.60973 -0.30177,1.68492 1.1845,1.36546 1.33855,-0.28771 1.45886,-0.2724 1.97245,0.25112 0.44763,0.45628 0.45241,0.47397 0.37274,1.37894 -0.0444,0.50419 -0.34548,2.03264 -0.6691,3.39654 -0.71209,3.00119 -0.88034,4.23917 -0.74385,5.47353 l 0.10365,0.93765 1.77858,-3.17242 c 2.97881,-5.31325 4.49065,-7.37162 6.35681,-8.65476 0.6965,-0.4789 0.69764,-0.40361 0.007,0.46887 -0.4945,0.62478 -1.15507,1.94194 -1.79177,3.57275 -1.10146,2.82121 -3.34605,6.81437 -4.65874,8.28796 -1.16339,1.30598 -2.51994,1.77602 -3.60526,1.2492 z m -24.53302,-9.49585 c 1.30288,-1.41304 3.2617,-4.6422 3.2573,-5.36974 -0.002,-0.41201 -0.90663,-0.63679 -1.65318,-0.41101 -0.73544,0.22242 -1.69857,1.21719 -2.24767,2.32151 -0.74866,1.50565 -1.17579,3.99473 -0.75657,4.4089 0.22313,0.22045 0.48504,0.0428 1.40012,-0.94966 z m -115.31326,9.74575 c -1.1346,-0.32175 -1.48999,-1.47896 -0.76494,-2.49079 0.62734,-0.87545 2.39959,-2.45895 3.79668,-3.39233 1.28866,-0.86092 1.58862,-1.16637 1.58591,-1.6149 -0.002,-0.25808 -0.60056,-1.74391 -1.23849,-3.07216 l -0.44347,-0.92333 -0.67607,0.79535 c -1.27316,1.49778 -3.63408,3.86533 -4.51912,4.53179 -1.12437,0.84668 -2.40234,1.45496 -3.46347,1.6485 -0.97066,0.17703 -1.38802,0.0591 -1.99229,-0.56305 -0.35891,-0.3695 -0.3946,-0.4989 -0.46395,-1.68184 l -0.0752,-1.28153 -0.99916,1.25105 c -1.65178,2.06819 -2.95076,2.83544 -4.81962,2.84674 -1.95222,0.0118 -2.68682,-0.8602 -3.08449,-3.66138 -0.0572,-0.4036 -0.14903,-0.62287 -0.24347,-0.58197 -1.81929,0.78784 -1.91347,0.81273 -3.35031,0.88532 l -1.45155,0.0733 -0.79443,1.1146 c -1.61758,2.26948 -3.55169,3.60224 -5.39497,3.71758 -0.51132,0.032 -1.20052,-0.0158 -1.53156,-0.10642 -0.85801,-0.23465 -1.72367,-1.04429 -2.25666,-2.11064 -0.42462,-0.84951 -0.4488,-0.97543 -0.4573,-2.38197 -0.0106,-1.7563 0.23652,-2.63934 1.21123,-4.32776 0.78505,-1.35991 2.913,-3.5558 4.38233,-4.52226 1.99757,-1.31393 3.53424,-1.53345 4.69142,-0.67021 1.04287,0.77796 1.1183,1.07244 1.13424,4.4284 l 0.0144,2.93024 0.42075,0.0763 c 1.33719,0.24249 2.19256,-0.59481 3.7981,-3.71791 1.42742,-2.7766 1.61531,-3.00961 2.49979,-3.09999 0.80975,-0.0828 1.13201,0.14961 1.13606,0.81916 10e-4,0.24094 -0.2012,1.7083 -0.45034,3.2608 -0.77542,4.83188 -0.5027,6.65519 0.88638,5.92617 0.72432,-0.38012 2.25456,-2.52867 3.96065,-5.561 1.6177,-2.87521 1.97246,-3.31573 2.82543,-3.50849 0.43624,-0.0986 1.12709,0.0924 1.29892,0.35904 0.28592,0.44371 0.093,3.01223 -0.47923,6.38128 -0.18892,1.11222 -0.20022,1.4072 -0.0602,1.57379 0.35704,0.42496 0.96504,-0.0187 3.32667,-2.42733 3.46184,-3.53078 3.7407,-3.99276 3.1263,-5.17931 -0.85069,-1.64289 -0.22589,-3.08761 1.80769,-4.17987 1.65087,-0.8867 4.466,-1.29214 5.63576,-0.81167 1.06529,0.43756 0.84562,0.9086 -1.60907,3.45029 -2.32367,2.40603 -2.21398,2.13008 -1.39269,3.50393 0.63559,1.06323 1.4262,2.66075 1.71686,3.46912 0.13961,0.38825 0.33146,0.70543 0.42634,0.70486 0.3875,-0.002 1.6403,-0.74253 1.71056,-1.01064 0.0404,-0.15415 0.0713,-1.06855 0.0688,-2.03201 -0.007,-2.56303 0.14989,-3.59337 0.72109,-4.74402 0.84169,-1.69561 2.17728,-2.76939 3.91808,-3.15005 1.04353,-0.22819 1.49389,-0.19603 2.27643,0.16258 1.20933,0.55419 1.69946,1.64014 1.40797,3.11957 -0.33504,1.70052 -1.27778,3.20117 -3.44437,5.48278 -0.73037,0.76914 -1.36504,1.52014 -1.41038,1.66888 -0.19895,0.65264 0.91763,1.67694 1.82307,1.67241 0.95814,-0.005 1.52935,-0.62215 4.51314,-4.8778 1.9567,-2.79074 3.52552,-4.4167 5.41538,-5.61261 l 0.83879,-0.5308 -0.47605,0.53437 c -0.75013,0.842 -1.23437,1.6195 -2.09482,3.36338 -1.74416,3.53495 -4.02008,7.21146 -5.09314,8.2274 -1.03686,0.9817 -1.69653,1.23665 -3.23728,1.25118 -1.69687,0.0158 -2.47951,-0.33827 -3.60573,-1.63217 -0.42952,-0.49348 -0.79735,-0.9217 -0.8174,-0.95159 -0.0872,-0.12992 -1.81609,0.73432 -2.03639,1.0179 -0.13376,0.17216 -0.31313,0.75309 -0.39862,1.29095 -0.37433,2.35515 -2.07985,4.11997 -4.63035,4.79137 -0.87032,0.22909 -2.44864,0.26928 -3.11825,0.0795 z m 3.18589,-1.8332 c 1.07449,-0.38641 1.86174,-1.4089 1.85569,-2.41017 -0.004,-0.65458 -0.25388,-0.81148 -0.77798,-0.4884 -0.69504,0.42845 -2.44409,2.18517 -2.5315,2.5426 -0.14327,0.58581 0.42667,0.72537 1.45379,0.35597 z m -31.01014,-2.45578 c 1.0797,-0.37531 2.11942,-1.40783 2.92805,-2.90774 l 0.29924,-0.55508 -1.14894,-1.12416 c -0.97685,-0.95577 -1.24092,-1.31492 -1.76297,-2.39765 l -0.61403,-1.27349 -0.59848,0.94394 c -1.01962,1.60818 -1.36329,2.63524 -1.35443,4.04778 0.007,1.0747 0.0557,1.31367 0.43073,2.09985 0.39429,0.82666 0.85277,1.32852 1.21171,1.32635 0.0836,-5e-4 0.35772,-0.0724 0.60912,-0.1598 z m 42.12683,-9.16349 c 0.63833,-0.94161 0.91414,-1.69143 0.90942,-2.47236 -0.009,-1.46045 -0.85232,-1.81889 -1.96114,-0.8334 -0.75667,0.6725 -1.06883,1.85361 -1.31457,4.9737 l -0.0796,1.01111 0.95826,-0.94905 c 0.52705,-0.52198 1.1965,-1.30047 1.48767,-1.73 z m -38.0094,2.29655 c 0.27385,-0.51922 0.0919,-2.72247 -0.30377,-3.67898 -0.17771,-0.42956 -0.56986,-0.48257 -1.04997,-0.14194 -0.29331,0.2081 -0.31,0.28797 -0.23255,1.1131 0.1839,1.95927 1.12962,3.57365 1.58629,2.70782 z m 28.20198,-5.17727 c 0.58504,-0.63308 0.61952,-0.70739 0.41988,-0.90464 -0.4889,-0.48303 -1.66086,0.59761 -1.46019,1.34642 0.10756,0.40121 0.36062,0.29373 1.04031,-0.44178 z m 124.17505,-1.49795 c -0.33441,-0.41989 -0.37668,-1.2339 -0.093,-1.79076 0.22966,-0.45075 0.44163,-0.55131 1.17151,-0.55572 0.97512,-0.006 1.82396,1.14283 1.47599,1.99747 -0.20107,0.49387 -0.64164,0.6925 -1.54813,0.69798 -0.62272,0.004 -0.76467,-0.0455 -1.0064,-0.34897 z"
         id="path13-63" />
    </g>
  </g>
</svg>
