<?xml version="1.0" encoding="UTF-8" standalone="no"?>
<!-- Created with Inkscape (http://www.inkscape.org/) -->

<svg
   width="100"
   height="100"
   viewBox="0 0 26.458334 26.458333"
   version="1.1"
   id="svg1"
   inkscape:version="1.4 (86a8ad7, 2024-10-11)"
   sodipodi:docname="Scissors.svg"
   xmlns:inkscape="http://www.inkscape.org/namespaces/inkscape"
   xmlns:sodipodi="http://sodipodi.sourceforge.net/DTD/sodipodi-0.dtd"
   xmlns="http://www.w3.org/2000/svg"
   xmlns:svg="http://www.w3.org/2000/svg">
  <sodipodi:namedview
     id="namedview1"
     pagecolor="#ffffff"
     bordercolor="#000000"
     borderopacity="0.25"
     inkscape:showpageshadow="2"
     inkscape:pageopacity="0.0"
     inkscape:pagecheckerboard="0"
     inkscape:deskcolor="#d1d1d1"
     inkscape:document-units="mm"
     inkscape:zoom="4"
     inkscape:cx="98"
     inkscape:cy="48.375"
     inkscape:window-width="1920"
     inkscape:window-height="1009"
     inkscape:window-x="1912"
     inkscape:window-y="-8"
     inkscape:window-maximized="1"
     inkscape:current-layer="layer1" />
  <defs
     id="defs1" />
  <g
     inkscape:label="Layer 1"
     inkscape:groupmode="layer"
     id="layer1"
     transform="translate(-36.5125,-28.839574)">
    <path
       id="path5-2-3-0-1-1-8-5-8-2-9-6-6-3"
       d="m 43.222238,54.385763 c -0.232406,-0.188885 -0.526015,-1.392058 -0.461966,-1.906398 0.04904,-0.404391 0.217714,-0.896485 0.451791,-1.321896 0.120331,-0.219549 0.217526,-0.436465 0.209796,-0.481456 -0.0054,-0.04648 -0.07903,-0.505165 -0.164551,-1.015467 -0.150716,-0.899361 -0.153378,-0.941416 -0.102762,-1.234219 0.107088,-0.595692 0.418909,-1.106393 0.871368,-1.43072 0.182659,-0.129056 0.384741,-0.223707 0.791462,-0.361613 1.125322,-0.38307 2.080357,-0.945613 2.752823,-1.626678 0.221483,-0.226333 0.248872,-0.350615 0.425534,-1.836562 0.07707,-0.660522 0.159094,-1.29926 0.183551,-1.418507 0.03042,-0.157569 0.02859,-0.222071 -0.01032,-0.243537 -0.120935,-0.07102 -0.790341,-0.139686 -1.345874,-0.138964 -0.519419,-10e-4 -0.723996,0.02338 -1.518636,0.161825 -1.448293,0.250313 -1.745375,0.422858 -2.487537,1.453019 -0.141889,0.196095 -0.353399,0.447192 -0.468049,0.547262 -0.21264,0.192419 -0.330945,0.43875 -0.295832,0.634769 0.02601,0.148799 -0.03091,0.251749 -0.176461,0.318857 -0.189013,0.08614 -0.273307,0.0475 -0.44541,-0.2059 -0.153144,-0.225121 -0.201775,-0.246482 -0.557799,-0.263736 -0.373403,-0.01525 -0.787278,-0.17297 -1.112521,-0.42311 -0.468456,-0.359761 -0.717016,-0.772717 -0.81874,-1.360008 -0.103061,-0.608315 0.01524,-1.139397 0.369619,-1.637286 0.553765,-0.781693 1.511862,-1.09281 2.404564,-0.773001 0.133371,0.04723 0.571498,0.270416 0.969106,0.498211 0.888884,0.503806 1.217577,0.645316 1.539732,0.653448 0.471674,0.01351 1.630104,-0.20037 2.977058,-0.553296 0.606924,-0.159497 0.752421,-0.217192 1.555648,-0.617789 L 49.309,39.529855 49.789058,38.896521 c 0.261852,-0.349735 0.928806,-1.224284 1.48011,-1.948063 0.552741,-0.721587 1.595766,-2.098849 2.319495,-3.05749 2.206815,-2.921173 2.802156,-3.639364 3.34599,-4.032868 0.179078,-0.129773 0.389715,-0.201849 0.398756,-0.135858 8.54e-4,0.015 -0.229598,0.394307 -0.515757,0.835036 -2.542794,3.916973 -4.712921,7.292791 -4.75102,7.395945 -0.0286,0.075 0.210545,-0.06272 4.687772,-2.671057 2.696187,-1.570829 3.756847,-2.161849 3.816589,-2.122733 0.01315,0.01015 0.0041,0.06307 -0.02013,0.116403 -0.250509,0.533141 -3.097651,2.656417 -6.894433,5.141609 -0.963314,0.630582 -2.921614,1.862334 -3.113528,1.953539 -0.121724,0.06083 -0.896775,1.315942 -1.102926,1.788764 -0.218557,0.496586 -0.36998,1.005545 -0.602656,2.002558 -0.243004,1.038191 -0.232778,1.015854 -0.561733,1.206151 -0.816556,0.465654 -1.029726,0.761649 -1.086243,1.496276 -0.02631,0.339456 0.02474,1.091329 0.110991,1.598018 0.09887,0.582889 -0.0062,1.077182 -0.340401,1.577478 -0.380068,0.577274 -0.967597,0.899282 -1.651803,0.912256 -0.952244,0.01634 -1.542238,0.258618 -1.885898,0.777639 -0.295609,0.450039 -0.325067,0.841625 -0.144087,1.896374 0.140313,0.812322 0.131183,0.902776 -0.04939,0.755035 l -0.0043,0.0029 z m 2.767372,-4.038937 c 0.563664,-0.325204 0.895816,-0.98994 0.837158,-1.667994 -0.05859,-0.687478 -0.527974,-1.290663 -1.174882,-1.505456 -0.230788,-0.07733 -0.283512,-0.07723 -0.691264,-0.01683 -0.400544,0.06195 -0.454813,0.07871 -0.648403,0.214797 -0.321883,0.229562 -0.562049,0.564995 -0.673121,0.950551 -0.09486,0.324892 -0.0942,0.340109 -0.01636,0.795992 0.07646,0.44426 0.08784,0.480613 0.25137,0.71146 0.511461,0.719562 1.388776,0.93058 2.112627,0.513105 v 0 z m -4.350017,-6.982689 c 0.451919,-0.220728 0.73914,-0.574459 0.88405,-1.08862 0.07431,-0.261382 0.07385,-0.314264 0.0058,-0.707727 -0.06811,-0.38403 -0.08587,-0.444374 -0.225026,-0.637992 -0.207057,-0.293091 -0.51245,-0.512418 -0.861562,-0.618656 -0.256771,-0.07908 -0.331164,-0.08358 -0.629041,-0.03565 -0.409926,0.06184 -0.646768,0.179325 -0.919804,0.455023 -0.689857,0.692451 -0.635851,1.852219 0.113126,2.450726 0.488523,0.390417 1.084156,0.460445 1.630972,0.190123 v 0 z m 8.342084,-3.010652 c 0.10327,-0.136426 0.105484,-0.284914 0.0042,-0.396953 -0.168838,-0.186701 -0.42473,-0.150614 -0.52054,0.07791 -0.136731,0.317895 0.307602,0.593321 0.516341,0.31904 z"
       style="stroke-width:0.260833" />
  </g>
</svg>
