<?xml version="1.0" encoding="UTF-8"?>
<svg width="304.37mm" height="64.55mm" viewBox="0 0 304.37 64.55" version="1.1" xmlns="http://www.w3.org/2000/svg">
  <g transform="translate(-36.51,-28.84)">
    <g transform="translate(17.71,-474.26)">
      <path d="m 282.70472,530.66972 c -0.13343,-0.4417 0.53095,-2.23042 1.05683,-2.83138 0.41178,-0.47363 1.05195,-0.95585 1.71798,-1.29651 0.34313,-0.17621 0.65446,-0.36906 0.68345,-0.43314 0.0332,-0.064 0.33539,-0.71281 0.66695,-1.43777 0.58434,-1.27768 0.61726,-1.33364 0.93469,-1.66353 0.65105,-0.66759 1.48993,-1.04994 2.34731,-1.07304 0.34451,-0.007 0.68409,0.0468 1.32213,0.22207 1.76664,0.483 3.47099,0.58995 4.91715,0.30166 0.47805,-0.0975 0.62032,-0.23245 2.12892,-1.97587 0.66873,-0.77623 1.32497,-1.52039 1.45915,-1.65142 0.17488,-0.17478 0.22825,-0.25866 0.19715,-0.31965 -0.093,-0.19504 -0.8878,-0.86073 -1.59725,-1.33954 -0.66185,-0.44987 -0.94396,-0.59538 -2.07743,-1.10494 -2.06409,-0.93129 -2.59215,-0.96768 -4.4287,-0.29415 -0.35038,0.12768 -0.83709,0.26541 -1.06979,0.29409 -0.43748,0.0619 -0.80115,0.27403 -0.92562,0.55446 -0.0953,0.21231 -0.25684,0.29452 -0.5005,0.25446 -0.31556,-0.0533 -0.38974,-0.17541 -0.39051,-0.64735 -0.001,-0.41949 -0.0446,-0.48874 -0.48397,-0.8182 -0.46327,-0.34191 -0.85515,-0.90055 -1.05413,-1.50058 -0.28705,-0.86357 -0.24759,-1.60512 0.12977,-2.44231 0.39381,-0.86517 1.00337,-1.44064 1.88549,-1.76989 1.3816,-0.51919 2.87274,-0.0888 3.7356,1.09016 0.1294,0.17544 0.49568,0.83855 0.80629,1.47256 0.6991,1.41042 0.99629,1.87482 1.40032,2.16339 0.59016,0.42455 2.25294,1.15202 4.27634,1.86487 0.91213,0.3206 1.1476,0.37263 2.5184,0.55512 l 0.93914,0.12744 1.15944,-0.39354 c 0.63612,-0.22012 2.24233,-0.76004 3.57078,-1.20746 1.32839,-0.44338 3.84856,-1.29998 5.59983,-1.89817 5.33834,-1.82154 6.71815,-2.2238 7.75186,-2.25626 0.34056,-0.0109 0.67156,0.079 0.62611,0.171 -0.012,0.0199 -0.63346,0.30484 -1.37917,0.62007 -6.62695,2.80199 -12.31109,5.23531 -12.44878,5.33403 -0.10125,0.071 0.3228,0.10179 8.2879,0.64002 4.79666,0.32401 6.66037,0.48584 6.70282,0.58734 0.008,0.0243 -0.0493,0.084 -0.12618,0.13114 -0.78003,0.46393 -6.24636,0.71445 -13.23691,0.60669 -1.77367,-0.0273 -5.33602,-0.14674 -5.65965,-0.19609 -0.20783,-0.0275 -2.28061,0.90465 -2.97814,1.34056 -0.29912,0.18693 -1.03859,0.74089 -1.64327,1.23103 -1.21128,0.98209 -1.40419,1.08293 -2.03629,1.06475 -0.57663,-0.0166 -1.03766,-0.21093 -1.43867,-0.60601 -0.46653,-0.45969 -0.66395,-0.99099 -0.66395,-1.78685 0,-0.5993 0.0942,-0.93577 0.40414,-1.44385 0.15313,-0.25098 0.27842,-0.47632 0.27842,-0.50076 0,-0.0244 -0.39687,-0.0444 -0.88194,-0.0444 -0.48506,0 -1.24031,-0.0533 -1.67833,-0.11845 -0.75268,-0.11186 -0.80395,-0.11186 -1.01178,-10e-4 -0.12097,0.0648 -0.44092,0.35063 -0.71101,0.63518 -0.54041,0.56916 -0.96481,0.79515 -1.70833,0.90951 -0.49506,0.0762 -0.59006,0.0762 -1.08512,0 z" fill="#000"/>
      <path d="m 64.831821,529.28284 c -0.129246,0.47669 -1.723642,1.69225 -2.531103,1.92701 -0.631549,0.18531 -1.476143,0.23881 -2.265522,0.15089 -0.404719,-0.046 -0.789185,-0.0557 -0.857041,-0.0191 -0.06786,0.0367 -0.698089,0.4398 -1.400062,0.89979 -1.23646,0.80604 -1.300345,0.83868 -1.768219,0.94234 -0.959738,0.21552 -1.925678,0.0641 -2.709495,-0.42726 -0.317548,-0.19973 -0.587334,-0.44817 -1.059082,-0.98171 -1.314344,-1.48027 -2.782652,-2.59261 -4.239779,-3.18474 -0.481698,-0.1947 -0.685743,-0.16524 -3.008121,0.51831 -1.035292,0.30066 -2.034681,0.58096 -2.230652,0.62248 -0.255937,0.054 -0.347761,0.0989 -0.359341,0.17156 -0.0266,0.23408 0.312196,1.30082 0.685744,2.15357 0.345196,0.79648 0.511152,1.09392 1.242764,2.2228 1.329885,2.06095 1.784451,2.40506 3.805549,2.88891 0.388985,0.0944 0.898546,0.26076 1.127436,0.36827 0.42971,0.20712 0.870292,0.22462 1.137518,0.0495 0.207417,-0.13433 0.395754,-0.11123 0.593065,0.069 0.249692,0.23644 0.250643,0.39373 -0.01114,0.81475 -0.233928,0.38457 -0.237423,0.46928 -0.02182,1.02455 0.219771,0.58347 0.264275,1.32126 0.108035,1.97557 -0.226497,0.94915 -0.675089,1.59313 -1.484776,2.12233 -0.833582,0.54952 -1.705613,0.69998 -2.680017,0.47599 -1.531753,-0.34969 -2.624669,-1.62964 -2.742249,-3.19782 -0.01751,-0.23785 0.02569,-1.04877 0.101235,-1.80342 0.162008,-1.68278 0.150398,-2.27962 -0.04481,-2.77855 -0.288727,-0.73228 -1.375813,-2.37525 -2.788459,-4.21388 -0.637705,-0.831 -0.823046,-1.01943 -1.94614,-1.99673 l -0.772894,-0.67289 -1.259362,-0.33117 c -0.693842,-0.18133 -2.438531,-0.64668 -3.878398,-1.02919 -1.439856,-0.38251 -4.175182,-1.10807 -6.080258,-1.60875 -5.803471,-1.52573 -7.267793,-1.98069 -8.212302,-2.55979 -0.309473,-0.18767 -0.555427,-0.46851 -0.463652,-0.52149 0.01988,-0.0163 0.733408,0.10044 1.587284,0.26063 7.508564,1.40248 13.966649,2.58547 14.142818,2.58037 0.128183,-7.8e-4 -0.233981,-0.28493 -7.076814,-5.49469 -4.119371,-3.13705 -5.704652,-4.38984 -5.677301,-4.50292 0.0076,-0.0283 0.09189,-0.049 0.187922,-0.0455 0.960476,0.0349 5.067655,3.80668 10.108438,9.28561 2.411052,2.62062 3.338991,3.55625 3.428991,3.45625 0.06,-0.0667 0.109091,-1.29091 0.109091,-2.72 0,-2.85818 0.06909,-3.54545 0.436364,-4.33818 0.254545,-0.54909 0.890909,-1.21818 1.472727,-1.54909 0.709091,-0.40364 1.527273,-0.52364 2.290909,-0.33455 1.090909,0.27091 2.054545,1.16364 2.490909,2.30909 0.181818,0.47273 0.2,0.78545 0.2,3.41818 0,2.63273 -0.01818,2.94545 -0.2,3.41818 -0.436364,1.14545 -1.4,2.03818 -2.490909,2.30909 -0.763636,0.18909 -1.581818,0.0691 -2.290909,-0.33455 -0.581818,-0.33091 -1.218182,-1 -1.472727,-1.54909 -0.367273,-0.79273 -0.436364,-1.48 -0.436364,-4.33818 0,-1.42909 0.04909,-2.65333 0.109091,-2.72 0.09,-0.1 0.927939,0.83563 3.428991,3.45625 5.040783,5.47893 9.147962,9.25071 10.108438,9.28561 0.09603,0.0035 0.180222,0.0172 0.187922,0.0455 0.02735,0.11308 -1.55793,1.36587 -5.677301,4.50292 -6.842833,5.20976 -7.204997,5.49391 -7.076814,5.49469 0.176169,5.1e-4 6.634254,-1.17789 14.142818,-2.58037 0.853876,-0.16019 1.567304,-0.27693 1.587284,-0.26063 0.09178,0.053 -0.154179,0.33382 -0.463652,0.52149 -0.944509,0.5791 -2.408831,1.03406 -8.212302,2.55979 -1.905076,0.50068 -4.640402,1.22624 -6.080258,1.60875 -1.439867,0.38251 -3.184556,0.84786 -3.878398,1.02919 l -1.259362,0.33117 -0.772894,0.67289 c -1.123094,0.9773 -1.308435,1.16573 -1.94614,1.99673 -1.412646,1.83863 -2.499732,3.4816 -2.788459,4.21388 -0.195208,0.49893 -0.206818,1.09577 -0.04481,2.77855 0.07555,0.75465 0.118745,1.56557 0.101235,1.80342 -0.11758,1.56818 -1.210496,2.84813 -2.742249,3.19782 -0.974404,0.22399 -1.846435,0.07353 -2.680017,-0.47599 -0.809687,-0.5292 -1.258279,-1.17318 -1.484776,-2.12233 -0.15624,-0.65431 -0.111736,-1.3921 0.108035,-1.97557 0.215603,-0.57527 0.212108,-0.63998 -0.02182,-1.02455 -0.261783,-0.42102 -0.260832,-0.57831 -0.01114,-0.81475 0.197311,-0.18023 0.385648,-0.20333 0.593065,-0.069 0.267226,0.17512 0.707808,0.15762 1.137518,-0.0495 0.22889,-0.10751 0.738451,-0.27387 1.127436,-0.36827 2.021098,-0.48385 2.475664,-0.82796 3.805549,-2.88891 0.731612,-1.12888 0.897568,-1.42632 1.242764,-2.2228 0.373548,-0.85275 0.712344,-1.91949 0.685744,-2.15357 -0.01158,-0.0727 -0.103404,-0.11756 -0.359341,-0.17156 -0.195971,-0.0415 -1.19536,-0.32182 -2.230652,-0.62248 -2.322378,-0.67355 -2.526423,-0.70301 -3.008121,-0.51831 -1.457127,0.59213 -2.925435,1.70447 -4.239779,3.18474 -0.471748,0.52354 -0.741534,0.78198 -1.059082,0.98171 -0.783817,0.49136 -1.749757,0.64278 -2.709495,0.42726 -0.467874,-0.10366 -0.531759,-0.1363 -1.768219,-0.94234 -0.701973,-0.45999 -1.332202,-0.86309 -1.400062,-0.89979 -0.06786,-0.0366 -0.452322,-0.0269 -0.857041,0.0191 -0.789379,0.0879 -1.633973,0.0344 -2.265522,-0.15089 -0.807461,-0.23476 -2.401857,-1.45032 -2.531103,-1.92701 -0.05818,-0.21463 -0.05818,-0.82537 0,-1.04 z" fill="#000"/>
      <text transform="matrix(0.988,-0.006,0.007,1.012,0,0)" style="font-size:15.49px;font-family:Karu-Regular,Karu;letter-spacing:0.31em;fill:#000" x="124.81" y="561.83">ALNWICK</text>
      <path d="m 219.62582,545.08327 c -0.59426,-0.35742 -0.86998,-0.94943 -1.01515,-2.17958 -0.21338,-1.80821 -0.8248,-3.01928 -2.23025,-4.4176 -1.01668,-1.01152 -2.20301,-1.67752 -6.55404,-3.67938 -3.82144,-1.75819 -4.73532,-2.33036 -4.73917,-2.96712 -0.0104,-1.72549 3.65159,-3.16274 10.48565,-4.11536 3.20827,-0.4472 3.30678,-0.48742 3.47946,-1.42051 0.43986,-2.37684 0.9844,-15.82256 0.7946,-19.61987 l -0.0903,-1.80731 0.47357,-0.45208 c 0.35405,-0.33798 0.59466,-0.45281 0.95337,-0.45498 0.60153,-0.004 1.24517,0.38163 1.58295,0.94751 0.59551,0.99766 0.60628,7.59842 0.0278,17.06227 -0.15056,2.46331 -0.23384,4.51817 -0.18506,4.56636 0.2173,0.21469 2.61078,0.29304 8.13798,0.26637 l 5.94931,-0.0287 0.0721,-0.77525 c 0.13372,-1.43901 0.20508,-2.91461 0.37645,-7.78412 0.24071,-6.84017 0.46588,-9.36694 0.91905,-10.31397 0.22399,-0.46808 0.23634,-0.47347 1.18881,-0.51812 0.89955,-0.0422 0.9807,-0.0222 1.24145,0.30516 0.15344,0.19266 0.3173,0.6035 0.36412,0.91299 0.0468,0.30948 -0.0512,3.64213 -0.21789,7.40589 -0.16667,3.76377 -0.29739,7.77558 -0.2905,8.91515 l 0.0125,2.07194 0.8541,0.14342 c 0.46975,0.0789 1.10877,0.14188 1.42005,0.14 0.71183,-0.004 1.43435,0.28632 1.63625,0.65816 0.0853,0.15712 0.13781,0.50921 0.11665,0.78242 -0.0565,0.72938 -0.37188,0.83748 -2.48758,0.85264 -0.97757,0.007 -1.79957,0.0583 -1.82664,0.11409 -0.0883,0.18191 0.20303,8.40839 0.36146,10.20517 0.0849,0.96295 0.27615,2.20487 0.42498,2.75982 0.35184,1.31186 0.34554,1.5602 -0.0498,1.96031 -0.39226,0.39703 -1.20636,0.45454 -1.843,0.13018 -1.17148,-0.59684 -1.80758,-3.85961 -2.08043,-10.67109 -0.09,-2.24922 -0.21827,-4.23015 -0.28483,-4.40207 -0.0925,-0.23888 -0.25778,-0.33036 -0.70103,-0.38796 -0.86242,-0.11207 -7.51866,-0.29651 -10.16213,-0.28158 -2.31731,0.0131 -3.06356,0.13109 -3.20514,0.50684 -0.27698,0.73503 -0.52102,3.55545 -0.82787,9.56764 -0.13276,2.6014 -0.27878,4.92287 -0.3245,5.1588 -0.0891,0.45976 -0.72856,1.10168 -1.09893,1.1031 -0.12401,4.7e-4 -0.42031,-0.11633 -0.65844,-0.25956 z" fill="#000"/>
    </g>
  </g>
</svg>
