<?xml version="1.0" encoding="UTF-8"?>
<svg width="100" height="100" viewBox="0 0 26.46 26.46" version="1.1" xmlns="http://www.w3.org/2000/svg">
  <g transform="translate(-36.51,-28.84)">
    <path d="m 43.222238,54.385763 c -0.232406,-0.188885 -0.526015,-1.392058 -0.461966,-1.906398 0.04904,-0.404391 0.217714,-0.896485 0.451791,-1.321896 0.120331,-0.219549 0.217526,-0.436465 0.209796,-0.481456 -0.0054,-0.04648 -0.07903,-0.505165 -0.164551,-1.015467 -0.150716,-0.899361 -0.153378,-0.941416 -0.102762,-1.234219 0.107088,-0.595692 0.418909,-1.106393 0.871368,-1.43072 0.182659,-0.129056 0.384741,-0.223707 0.791462,-0.361613 1.125322,-0.38307 2.080357,-0.945613 2.752823,-1.626678 0.221483,-0.226333 0.248872,-0.350615 0.425534,-1.836562 0.07707,-0.660522 0.159094,-1.29926 0.183551,-1.418507 0.03042,-0.157569 0.02859,-0.222071 -0.01032,-0.243537 -0.120935,-0.07102 -0.790341,-0.139686 -1.345874,-0.138964 -0.519419,-10e-4 -0.723996,0.02338 -1.518636,0.161825 -1.448293,0.250313 -1.745375,0.422858 -2.487537,1.453019 -0.141889,0.196095 -0.353399,0.447192 -0.468049,0.547262 -0.21264,0.192419 -0.330945,0.43875 -0.295832,0.634769 0.02601,0.148799 -0.03091,0.251749 -0.176461,0.318857 -0.189013,0.08614 -0.273307,0.0475 -0.44541,-0.2059 -0.153144,-0.225121 -0.201775,-0.246482 -0.557799,-0.263736 -0.373403,-0.01525 -0.787278,-0.17297 -1.112521,-0.42311 -0.468456,-0.359761 -0.717016,-0.772717 -0.81874,-1.360008 -0.103061,-0.608315 0.01524,-1.139397 0.369619,-1.637286 0.553765,-0.781693 1.511862,-1.09281 2.404564,-0.773001 0.133371,0.04723 0.571498,0.270416 0.969106,0.498211 0.888884,0.503806 1.217577,0.645316 1.539732,0.653448 0.471674,0.01351 1.630104,-0.20037 2.977058,-0.553296 0.606924,-0.159497 0.752421,-0.217192 1.555648,-0.617789 L 49.309,39.529855 49.789058,38.896521 c 0.261852,-0.349735 0.928806,-1.224284 1.48011,-1.948063 0.552741,-0.721587 1.595766,-2.098849 2.319495,-3.05749 2.206815,-2.921173 2.802156,-3.639364 3.34599,-4.032868 0.179078,-0.129773 0.389715,-0.201849 0.398756,-0.135858 8.54e-4,0.015 -0.229598,0.394307 -0.515757,0.835036 -2.542794,3.916973 -4.712921,7.292791 -4.75102,7.395945 -0.0286,0.075 0.210545,-0.06272 4.687772,-2.671057 2.696187,-1.570829 3.735906,-2.136934 3.735906,-2.034934 0,0.03 -0.229598,0.394307 -0.515757,0.835036 -2.542794,3.916973 -4.712921,7.292791 -4.75102,7.395945 -0.0286,0.075 0.210545,-0.06272 4.687772,-2.671057 z" fill="#000"/>
  </g>
</svg>
